<svg xmlns="http://www.w3.org/2000/svg" xmlns:xlink="http://www.w3.org/1999/xlink" width="419" zoomAndPan="magnify" viewBox="0 0 314.25 130.499996" height="174" preserveAspectRatio="xMidYMid meet" version="1.0"><defs><g/><clipPath id="4cb73db7fa"><rect x="0" width="222" y="0" height="104"/></clipPath></defs><g transform="matrix(1, 0, 0, 1, 72, 12)"><g clip-path="url(#4cb73db7fa)"><g fill="#ffffff" fill-opacity="1"><g transform="translate(1.027833, 80.436059)"><g><path d="M 38.734375 -15.015625 C 38.734375 -11.816406 37.957031 -9.03125 36.40625 -6.65625 C 34.851562 -4.289062 32.585938 -2.46875 29.609375 -1.1875 C 26.640625 0.09375 23.035156 0.734375 18.796875 0.734375 C 16.921875 0.734375 15.085938 0.609375 13.296875 0.359375 C 11.515625 0.117188 9.800781 -0.238281 8.15625 -0.71875 C 6.519531 -1.195312 4.960938 -1.796875 3.484375 -2.515625 L 3.484375 -13.171875 C 6.046875 -12.035156 8.707031 -11.007812 11.46875 -10.09375 C 14.226562 -9.1875 16.96875 -8.734375 19.6875 -8.734375 C 21.5625 -8.734375 23.070312 -8.976562 24.21875 -9.46875 C 25.363281 -9.96875 26.195312 -10.644531 26.71875 -11.5 C 27.238281 -12.363281 27.5 -13.351562 27.5 -14.46875 C 27.5 -15.820312 27.039062 -16.976562 26.125 -17.9375 C 25.207031 -18.90625 23.953125 -19.804688 22.359375 -20.640625 C 20.773438 -21.484375 18.984375 -22.382812 16.984375 -23.34375 C 15.722656 -23.9375 14.351562 -24.660156 12.875 -25.515625 C 11.394531 -26.367188 9.988281 -27.410156 8.65625 -28.640625 C 7.320312 -29.867188 6.226562 -31.363281 5.375 -33.125 C 4.53125 -34.894531 4.109375 -37.015625 4.109375 -39.484375 C 4.109375 -42.710938 4.847656 -45.472656 6.328125 -47.765625 C 7.804688 -50.066406 9.921875 -51.828125 12.671875 -53.046875 C 15.421875 -54.265625 18.671875 -54.875 22.421875 -54.875 C 25.234375 -54.875 27.914062 -54.546875 30.46875 -53.890625 C 33.019531 -53.234375 35.691406 -52.289062 38.484375 -51.0625 L 34.78125 -42.140625 C 32.289062 -43.148438 30.054688 -43.929688 28.078125 -44.484375 C 26.109375 -45.046875 24.097656 -45.328125 22.046875 -45.328125 C 20.617188 -45.328125 19.398438 -45.097656 18.390625 -44.640625 C 17.378906 -44.179688 16.613281 -43.539062 16.09375 -42.71875 C 15.570312 -41.894531 15.3125 -40.941406 15.3125 -39.859375 C 15.3125 -38.566406 15.6875 -37.484375 16.4375 -36.609375 C 17.195312 -35.734375 18.332031 -34.890625 19.84375 -34.078125 C 21.363281 -33.265625 23.257812 -32.316406 25.53125 -31.234375 C 28.289062 -29.921875 30.648438 -28.554688 32.609375 -27.140625 C 34.578125 -25.722656 36.085938 -24.054688 37.140625 -22.140625 C 38.203125 -20.234375 38.734375 -17.859375 38.734375 -15.015625 Z M 38.734375 -15.015625 "/></g></g></g><g fill="#ffffff" fill-opacity="1"><g transform="translate(42.766535, 80.436059)"><g><path d="M 17.203125 -57.578125 L 17.203125 -45.84375 C 17.203125 -43.800781 17.132812 -41.851562 17 -40 C 16.863281 -38.144531 16.757812 -36.835938 16.6875 -36.078125 L 17.28125 -36.078125 C 18.164062 -37.503906 19.21875 -38.660156 20.4375 -39.546875 C 21.664062 -40.441406 23.019531 -41.097656 24.5 -41.515625 C 25.976562 -41.929688 27.566406 -42.140625 29.265625 -42.140625 C 32.253906 -42.140625 34.859375 -41.613281 37.078125 -40.5625 C 39.296875 -39.519531 41.019531 -37.878906 42.25 -35.640625 C 43.488281 -33.410156 44.109375 -30.519531 44.109375 -26.96875 L 44.109375 0 L 32.828125 0 L 32.828125 -24.15625 C 32.828125 -27.125 32.28125 -29.359375 31.1875 -30.859375 C 30.101562 -32.367188 28.425781 -33.125 26.15625 -33.125 C 23.882812 -33.125 22.09375 -32.597656 20.78125 -31.546875 C 19.476562 -30.492188 18.554688 -28.945312 18.015625 -26.90625 C 17.472656 -24.875 17.203125 -22.394531 17.203125 -19.46875 L 17.203125 0 L 5.921875 0 L 5.921875 -57.578125 Z M 17.203125 -57.578125 "/></g></g></g><g fill="#ffffff" fill-opacity="1"><g transform="translate(92.571759, 80.436059)"><g><path d="M 22.875 -42.21875 C 28.414062 -42.21875 32.664062 -41.007812 35.625 -38.59375 C 38.59375 -36.175781 40.078125 -32.5 40.078125 -27.5625 L 40.078125 0 L 32.1875 0 L 30.015625 -5.625 L 29.71875 -5.625 C 28.53125 -4.144531 27.316406 -2.9375 26.078125 -2 C 24.847656 -1.0625 23.429688 -0.375 21.828125 0.0625 C 20.222656 0.507812 18.273438 0.734375 15.984375 0.734375 C 13.546875 0.734375 11.359375 0.265625 9.421875 -0.671875 C 7.484375 -1.609375 5.957031 -3.039062 4.84375 -4.96875 C 3.738281 -6.90625 3.1875 -9.367188 3.1875 -12.359375 C 3.1875 -16.753906 4.726562 -19.992188 7.8125 -22.078125 C 10.894531 -24.160156 15.519531 -25.3125 21.6875 -25.53125 L 28.859375 -25.75 L 28.859375 -27.5625 C 28.859375 -29.738281 28.289062 -31.332031 27.15625 -32.34375 C 26.019531 -33.351562 24.441406 -33.859375 22.421875 -33.859375 C 20.421875 -33.859375 18.457031 -33.570312 16.53125 -33 C 14.613281 -32.4375 12.691406 -31.722656 10.765625 -30.859375 L 7.03125 -38.484375 C 9.226562 -39.640625 11.6875 -40.550781 14.40625 -41.21875 C 17.132812 -41.882812 19.957031 -42.21875 22.875 -42.21875 Z M 28.859375 -19.171875 L 24.5 -19.015625 C 20.84375 -18.921875 18.304688 -18.269531 16.890625 -17.0625 C 15.472656 -15.851562 14.765625 -14.257812 14.765625 -12.28125 C 14.765625 -10.550781 15.269531 -9.320312 16.28125 -8.59375 C 17.289062 -7.875 18.609375 -7.515625 20.234375 -7.515625 C 22.648438 -7.515625 24.691406 -8.226562 26.359375 -9.65625 C 28.023438 -11.082031 28.859375 -13.117188 28.859375 -15.765625 Z M 28.859375 -19.171875 "/></g></g></g><g fill="#ffffff" fill-opacity="1"><g transform="translate(138.343722, 80.436059)"><g><path d="M 29.015625 -42.140625 C 29.578125 -42.140625 30.234375 -42.109375 30.984375 -42.046875 C 31.742188 -41.984375 32.359375 -41.90625 32.828125 -41.8125 L 31.96875 -31.234375 C 31.601562 -31.359375 31.078125 -31.445312 30.390625 -31.5 C 29.710938 -31.5625 29.128906 -31.59375 28.640625 -31.59375 C 27.179688 -31.59375 25.765625 -31.40625 24.390625 -31.03125 C 23.023438 -30.664062 21.800781 -30.070312 20.71875 -29.25 C 19.632812 -28.425781 18.773438 -27.34375 18.140625 -26 C 17.515625 -24.65625 17.203125 -23.003906 17.203125 -21.046875 L 17.203125 0 L 5.921875 0 L 5.921875 -41.375 L 14.46875 -41.375 L 16.140625 -34.40625 L 16.6875 -34.40625 C 17.5 -35.8125 18.515625 -37.097656 19.734375 -38.265625 C 20.960938 -39.441406 22.359375 -40.378906 23.921875 -41.078125 C 25.484375 -41.785156 27.179688 -42.140625 29.015625 -42.140625 Z M 29.015625 -42.140625 "/></g></g></g><g fill="#ffffff" fill-opacity="1"><g transform="translate(172.755949, 80.436059)"><g><path d="M 19.015625 0.734375 C 14.398438 0.734375 10.644531 -1.070312 7.75 -4.6875 C 4.851562 -8.300781 3.40625 -13.609375 3.40625 -20.609375 C 3.40625 -27.691406 4.867188 -33.050781 7.796875 -36.6875 C 10.734375 -40.320312 14.570312 -42.140625 19.3125 -42.140625 C 21.289062 -42.140625 23.03125 -41.867188 24.53125 -41.328125 C 26.039062 -40.785156 27.34375 -40.054688 28.4375 -39.140625 C 29.53125 -38.234375 30.460938 -37.210938 31.234375 -36.078125 L 31.59375 -36.078125 C 31.445312 -36.867188 31.269531 -38.035156 31.0625 -39.578125 C 30.851562 -41.117188 30.75 -42.703125 30.75 -44.328125 L 30.75 -57.578125 L 42.078125 -57.578125 L 42.078125 0 L 33.40625 0 L 31.234375 -5.359375 L 30.75 -5.359375 C 30.03125 -4.222656 29.132812 -3.191406 28.0625 -2.265625 C 26.988281 -1.347656 25.710938 -0.617188 24.234375 -0.078125 C 22.753906 0.460938 21.015625 0.734375 19.015625 0.734375 Z M 22.984375 -8.25 C 26.066406 -8.25 28.242188 -9.164062 29.515625 -11 C 30.785156 -12.84375 31.457031 -15.613281 31.53125 -19.3125 L 31.53125 -20.53125 C 31.53125 -24.550781 30.910156 -27.628906 29.671875 -29.765625 C 28.441406 -31.898438 26.148438 -32.96875 22.796875 -32.96875 C 20.304688 -32.96875 18.359375 -31.894531 16.953125 -29.75 C 15.546875 -27.601562 14.84375 -24.507812 14.84375 -20.46875 C 14.84375 -16.414062 15.550781 -13.363281 16.96875 -11.3125 C 18.382812 -9.269531 20.390625 -8.25 22.984375 -8.25 Z M 22.984375 -8.25 "/></g></g></g></g></g><path fill="#ffffff" d="M 42.074219 92.738281 C 55.96875 84.714844 63.253906 71.328125 58.355469 62.828125 C 56.890625 60.277344 54.488281 58.46875 51.480469 57.386719 C 56.757812 50.675781 58.566406 43.308594 55.441406 37.917969 C 50.542969 29.414062 35.300781 29.035156 21.40625 37.0625 C 7.511719 45.085938 0.226562 58.46875 5.128906 66.972656 C 6.589844 69.519531 8.992188 71.328125 12 72.414062 C 6.722656 79.121094 4.914062 86.488281 8.039062 91.882812 C 12.9375 100.382812 28.179688 100.761719 42.074219 92.738281 Z M 42.074219 92.738281 " fill-opacity="1" fill-rule="nonzero"/></svg>